<?xml version="1.0" standalone="no"?>
<!DOCTYPE svg PUBLIC "-//W3C//DTD SVG 20010904//EN"
 "http://www.w3.org/TR/2001/REC-SVG-20010904/DTD/svg10.dtd">
<svg version="1.0" xmlns="http://www.w3.org/2000/svg"
 width="700.000000pt" height="700.000000pt" viewBox="0 0 700.000000 700.000000"
 preserveAspectRatio="xMidYMid meet">

<g transform="translate(0.000000,700.000000) scale(0.100000,-0.100000)"
fill="#000000" stroke="none">
<path d="M1600 5852 c0 -5 -25 -36 -55 -69 -30 -34 -55 -65 -55 -70 0 -4 -18
-33 -40 -63 -74 -102 -86 -125 -100 -185 -7 -33 -18 -66 -24 -74 -5 -7 -11
-18 -12 -25 -2 -6 -5 -21 -8 -34 -3 -12 -21 -42 -42 -67 -20 -25 -33 -45 -29
-45 4 0 1 -7 -6 -16 -15 -18 -32 -47 -51 -84 -6 -14 -27 -44 -46 -67 -41 -53
-92 -163 -92 -201 0 -15 -5 -33 -12 -40 -9 -9 -8 -16 4 -29 19 -22 20 -44 6
-110 -9 -42 -8 -65 7 -130 10 -43 21 -82 25 -88 10 -13 24 -86 21 -104 -4 -21
20 -102 38 -130 12 -20 15 -49 13 -140 -3 -119 6 -171 32 -171 8 0 17 -6 20
-12 5 -10 7 -10 12 0 3 6 10 10 15 6 5 -3 9 1 9 8 0 7 7 2 16 -10 l15 -22 26
20 c29 23 43 18 43 -13 0 -42 29 -132 48 -147 15 -13 17 -27 14 -90 -2 -53 2
-82 12 -100 8 -14 33 -62 56 -107 22 -46 45 -83 49 -83 5 0 11 -13 13 -30 3
-17 0 -30 -6 -30 -28 -1 23 -20 52 -20 37 0 40 -6 44 -70 3 -45 0 -48 -34 -35
-14 6 -18 2 -18 -16 0 -17 -3 -20 -9 -11 -5 8 -16 12 -26 10 -22 -4 -29 -63
-9 -83 8 -8 13 -16 12 -18 -2 -2 8 -20 22 -40 23 -34 60 -50 60 -27 0 6 6 10
13 9 30 -4 36 3 39 44 2 34 7 42 23 42 20 0 55 30 55 47 0 5 15 8 33 8 71 -2
216 36 218 57 7 69 37 139 73 174 14 13 26 33 26 44 1 38 46 75 92 75 27 1 88
53 88 75 0 42 95 84 147 64 12 -4 25 -4 27 0 3 5 24 11 46 15 23 3 39 10 36
15 -9 14 20 21 83 21 42 0 63 5 77 18 19 18 49 19 38 1 -8 -13 13 -11 49 5 88
39 106 41 139 16 15 -11 34 -20 43 -20 27 0 55 -20 66 -46 9 -24 13 -26 69
-22 33 1 60 0 60 -4 0 -5 -8 -8 -17 -8 -16 -1 -16 -2 1 -15 17 -13 18 -18 6
-40 -7 -14 -17 -25 -22 -25 -5 0 -8 -21 -7 -47 1 -27 -4 -61 -10 -76 -6 -16
-11 -48 -11 -72 0 -30 -10 -61 -30 -98 -17 -30 -30 -61 -30 -68 0 -7 -8 -21
-17 -31 -14 -15 -17 -40 -17 -132 l-1 -113 -57 -41 c-44 -32 -60 -50 -69 -82
-7 -22 -18 -45 -26 -51 -7 -6 -13 -29 -13 -50 0 -21 -5 -41 -10 -44 -6 -3 -7
-17 -4 -29 4 -17 0 -28 -14 -37 -26 -19 -47 -60 -43 -87 2 -18 -4 -26 -28 -35
-22 -8 -29 -16 -25 -27 4 -8 12 -33 19 -55 7 -22 16 -51 21 -65 4 -14 23 -54
42 -90 19 -35 43 -91 53 -124 11 -33 26 -68 35 -77 11 -12 15 -33 13 -70 -2
-34 1 -54 9 -57 7 -2 12 -9 12 -15 0 -10 10 -34 52 -119 15 -31 10 -58 -11
-58 -25 0 -36 -17 -22 -34 15 -18 71 -31 221 -52 69 -9 130 -20 135 -24 6 -4
52 -11 104 -15 52 -4 104 -11 116 -15 35 -13 391 36 436 61 10 5 34 9 54 9 20
0 34 4 31 9 -3 5 4 11 17 14 39 10 157 11 167 1 11 -12 -17 -44 -55 -64 -17
-9 -34 -26 -40 -38 -5 -12 -13 -22 -17 -22 -5 0 -8 -7 -8 -16 0 -24 -42 -64
-67 -64 -13 0 -23 -6 -23 -14 0 -8 -5 -16 -12 -18 -8 -3 -8 -7 -2 -11 6 -3 23
1 39 9 34 17 48 9 20 -13 -14 -11 -16 -17 -8 -20 14 -5 8 -48 -9 -69 -4 -6 -6
-18 -3 -26 4 -9 -4 -18 -22 -24 l-28 -10 48 -23 c26 -13 47 -27 47 -31 0 -4
-14 -13 -32 -19 -25 -9 -29 -14 -19 -24 9 -9 110 -13 403 -16 l390 -3 -7 30
c-5 23 -2 33 12 44 20 15 28 38 13 38 -13 0 -1 52 14 62 7 5 4 8 -7 8 -24 0
-41 48 -27 78 5 13 8 28 4 33 -3 5 9 23 26 41 47 46 58 68 64 121 6 44 4 48
-19 57 -15 6 -34 29 -50 61 -28 60 -26 68 39 129 19 18 37 43 40 54 3 12 18
29 33 38 50 31 117 96 118 117 1 12 5 24 10 28 4 5 4 -2 1 -14 -6 -18 -4 -22
8 -17 9 3 16 10 16 15 0 5 4 9 10 9 19 0 130 104 130 122 0 6 17 31 38 57 86
105 187 285 198 353 4 21 11 35 16 32 6 -4 7 2 3 15 -3 12 -2 21 4 21 8 0 16
15 27 50 9 32 28 70 33 70 12 0 33 79 25 92 -4 7 -3 8 4 4 7 -4 13 -2 13 3 3
26 4 30 12 37 4 4 7 16 7 26 0 10 7 21 15 24 8 4 12 10 9 15 -3 6 0 16 6 24 7
8 10 22 6 30 -3 8 -2 15 3 15 9 0 46 87 57 135 4 17 11 33 16 36 5 3 11 41 14
85 2 43 12 94 20 113 12 25 17 70 18 185 1 163 -12 278 -38 341 -13 30 -18 78
-20 195 -3 138 -1 163 19 225 12 39 27 98 34 131 6 34 19 77 28 95 10 20 19
67 21 114 4 79 3 82 -38 160 -23 44 -55 98 -70 120 -15 22 -31 51 -35 65 -4
13 -13 30 -19 37 -44 50 -66 86 -66 109 0 13 -23 62 -51 110 -28 49 -57 103
-64 121 -13 30 -17 33 -42 27 -15 -4 -34 -16 -41 -26 -7 -10 -19 -18 -27 -18
-25 0 -26 -17 -5 -70 22 -55 53 -89 82 -90 18 0 45 -25 93 -85 43 -54 59 -85
44 -85 -7 0 -20 -6 -28 -14 -13 -12 -26 -13 -65 -4 -36 8 -50 7 -56 -2 -19
-31 -125 49 -209 158 -18 23 -38 42 -44 42 -7 0 -27 20 -45 44 -18 24 -48 52
-67 61 -19 9 -35 22 -35 29 0 14 -23 67 -46 106 -8 14 -20 37 -25 52 -6 15
-19 30 -30 33 -25 8 -25 35 1 35 28 0 25 11 -15 61 -33 42 -34 44 -15 53 29
13 25 21 -26 58 -32 23 -56 33 -80 32 -24 -1 -35 4 -39 16 -5 16 -20 17 -153
15 -81 -2 -157 -4 -169 -6 -24 -4 -21 -19 4 -19 22 0 53 -29 47 -44 -2 -6 4
-29 15 -51 14 -29 16 -42 8 -47 -8 -5 -6 -12 8 -22 18 -13 18 -15 3 -16 -22 0
-43 36 -25 43 7 3 6 6 -5 6 -9 1 -19 -5 -22 -11 -3 -10 -8 -9 -18 2 -23 26
-71 55 -121 74 -27 10 -53 27 -60 37 -6 10 -16 19 -20 19 -5 0 -15 7 -23 15
-12 12 -45 15 -159 15 l-143 0 -19 -72 -20 -73 -39 3 c-21 1 -169 5 -328 8
-301 6 -415 -3 -557 -42 -30 -8 -102 -23 -161 -33 l-108 -18 0 27 c0 34 -70
102 -123 119 -31 10 -36 17 -42 52 l-7 39 -464 0 c-255 0 -464 -4 -464 -8z
m609 -43 c7 -21 31 -42 50 -44 19 -1 21 -7 14 -34 -3 -11 -5 -23 -5 -25 2 -9
-42 -59 -118 -137 -41 -42 -89 -91 -105 -110 -99 -111 -202 -172 -293 -174
-29 -1 -56 3 -59 8 -3 5 4 21 14 36 11 14 23 36 27 49 4 12 17 27 29 34 36 19
107 81 107 94 0 6 7 17 15 24 22 18 18 30 -10 30 -31 0 -31 5 1 35 14 13 25
26 25 29 -3 27 3 39 27 53 15 8 34 30 42 47 10 21 23 32 41 34 20 2 26 8 22
21 -3 13 5 21 33 32 47 18 136 17 143 -2z m1066 -128 c38 -7 39 -7 17 -19 -26
-15 -172 -12 -173 3 -1 21 82 30 156 16z m908 -549 c7 -5 28 -13 47 -17 19 -4
51 -16 70 -26 19 -11 42 -19 50 -19 8 0 40 -13 70 -29 30 -15 89 -36 130 -46
41 -9 80 -21 85 -25 6 -4 26 -13 46 -19 20 -6 47 -23 60 -37 15 -17 18 -23 7
-19 -9 4 -19 2 -23 -4 -3 -6 -17 -11 -31 -11 -13 0 -24 -6 -24 -13 0 -13 -144
-47 -197 -47 -12 0 -25 -5 -28 -11 -4 -5 -18 -14 -31 -19 -14 -6 -24 -18 -24
-28 0 -10 -9 -27 -20 -37 -11 -10 -20 -22 -20 -26 0 -22 -64 -67 -103 -73 -42
-7 -87 -35 -87 -54 0 -14 -25 -20 -84 -21 -54 0 -68 -7 -46 -22 12 -9 12 -10
-3 -5 -10 3 -26 -3 -38 -15 -24 -24 -50 -31 -104 -28 -22 2 -64 2 -92 1 -66
-2 -68 8 -18 104 25 50 31 70 22 76 -9 6 -9 12 0 26 9 15 9 22 0 31 -7 7 -12
19 -12 28 0 10 -11 20 -25 23 -18 4 -25 13 -25 30 0 22 4 25 33 22 l32 -4 0
61 c0 33 -4 63 -10 66 -12 7 -14 68 -3 79 4 4 8 15 8 24 0 9 10 21 22 27 12 6
33 23 47 37 19 19 37 25 73 27 25 0 48 3 51 5 8 8 183 -3 195 -12z m-2713 -32
c-20 -15 -23 -21 -12 -31 19 -20 14 -31 -8 -17 -31 20 -10 68 30 68 10 0 7 -7
-10 -20z m1168 -62 c51 2 72 -3 108 -23 25 -14 51 -25 58 -25 14 0 26 -30 26
-67 0 -13 -3 -23 -7 -23 -5 0 -9 -21 -10 -48 -3 -50 -40 -162 -54 -162 -5 0
-9 -4 -9 -10 0 -10 -69 -80 -80 -80 -4 0 -15 -16 -26 -35 -10 -20 -32 -43 -49
-51 -39 -20 -145 -31 -145 -15 0 21 -37 11 -50 -13 -7 -14 -20 -28 -28 -31
-17 -6 -42 23 -35 42 3 8 -3 13 -16 13 -11 0 -25 9 -31 20 -6 11 -15 18 -21
15 -5 -4 -9 -1 -9 5 0 8 -9 10 -25 6 -35 -9 -63 9 -67 41 -2 22 -8 28 -26 26
-13 -2 -28 2 -35 7 -50 43 -62 50 -74 46 -18 -7 -16 9 2 24 27 22 17 37 -22
36 -36 -1 -38 0 -35 29 2 17 9 33 16 37 6 3 37 31 68 62 31 31 65 56 74 56 10
0 26 7 36 17 12 10 18 12 18 4 0 -8 7 -7 22 3 12 9 33 16 46 16 13 0 51 13 85
30 82 39 165 60 202 52 17 -3 58 -5 93 -4z m-774 -417 c9 -14 -42 -59 -81 -72
-19 -6 -60 -28 -91 -49 -52 -34 -59 -36 -97 -27 -22 5 -44 13 -49 17 -15 14
89 105 136 119 23 8 48 15 53 16 24 8 124 4 129 -4z m1884 -330 c12 -6 22 -16
22 -20 0 -5 17 -12 38 -15 20 -3 46 -8 57 -10 11 -2 30 -5 43 -5 12 -1 22 -5
22 -10 0 -5 5 -22 12 -38 6 -15 10 -32 9 -37 -3 -14 21 -26 52 -26 17 0 27 -5
27 -15 0 -8 5 -15 11 -15 5 0 8 -4 4 -10 -3 -5 -12 -7 -20 -3 -25 9 -17 -8 20
-44 27 -26 35 -42 35 -68 0 -19 -4 -35 -10 -35 -20 0 -9 -15 23 -30 23 -11 33
-23 35 -42 2 -15 16 -40 31 -55 l28 -28 -24 -25 c-35 -37 -30 -120 7 -120 21
0 30 -19 30 -61 0 -37 25 -39 28 -2 4 44 17 46 19 3 1 -29 -2 -40 -13 -40 -8
0 -14 -6 -14 -12 0 -10 -2 -10 -8 -1 -6 9 -11 7 -20 -7 -10 -16 -9 -18 3 -14
13 5 26 -26 37 -91 2 -11 10 -20 18 -21 42 -1 50 -14 46 -73 -4 -54 -3 -57 26
-74 16 -9 27 -21 23 -26 -3 -5 9 -11 27 -13 30 -3 33 -6 36 -38 5 -76 14 -120
22 -115 5 3 12 -11 15 -32 9 -54 30 -87 57 -91 13 -2 38 -8 57 -14 24 -8 30
-13 20 -19 -8 -5 -9 -9 -4 -9 15 0 48 -58 61 -107 10 -39 9 -43 -7 -43 -15 0
-17 -11 -16 -92 0 -52 -5 -110 -12 -130 -11 -32 -15 -36 -31 -28 -25 14 -33
-12 -15 -47 8 -15 15 -34 15 -41 0 -8 10 -22 23 -33 18 -16 20 -20 7 -28 -12
-9 -12 -14 3 -45 9 -20 20 -37 24 -37 86 -15 108 -21 120 -36 6 -8 13 -14 15
-14 9 2 68 -24 68 -30 0 -4 14 -4 30 1 27 8 30 6 26 -8 -17 -64 -16 -70 4 -65
13 4 20 0 20 -9 0 -9 -9 -14 -22 -14 -17 1 -24 -5 -26 -21 -2 -15 -10 -23 -22
-23 -10 0 -22 -4 -25 -10 -3 -5 -15 -10 -26 -10 -10 0 -19 -5 -19 -12 0 -6 -6
-19 -14 -27 -7 -9 -18 -29 -23 -45 -6 -20 -19 -33 -39 -39 -16 -6 -45 -23 -65
-38 -20 -16 -41 -29 -47 -29 -5 0 -15 -6 -21 -14 -6 -8 -26 -16 -44 -19 -81
-14 -98 -20 -87 -27 6 -4 -16 -10 -50 -14 -34 -4 -65 -4 -68 -1 -4 3 1 20 11
36 9 17 17 43 17 58 0 15 6 33 13 39 14 15 17 35 21 143 4 90 14 149 25 149 5
0 12 11 15 25 5 21 11 24 35 19 22 -5 32 -1 45 17 27 39 21 50 -23 46 -22 -2
-47 -10 -57 -18 -16 -12 -17 -12 -12 3 6 15 -5 23 -63 41 -9 3 -28 27 -43 52
-29 52 -33 70 -13 60 6 -4 5 -1 -3 7 -34 29 -47 62 -36 91 9 26 7 32 -20 55
-17 15 -34 35 -37 45 -5 12 -17 17 -46 17 -42 0 -71 25 -71 62 0 39 -114 174
-152 180 -12 2 -22 11 -24 23 -4 25 -31 45 -63 45 -40 1 -65 24 -52 49 6 11
11 44 11 73 0 30 5 59 11 65 11 11 -2 48 -26 68 -10 9 -24 61 -39 145 -8 45
-19 85 -27 95 -4 6 -9 30 -12 55 -2 25 -12 82 -22 128 -16 72 -23 85 -48 100
-16 9 -35 31 -43 47 -8 17 -21 41 -28 54 -17 29 -11 51 14 51 22 0 99 60 99
78 1 7 -5 19 -11 26 -7 7 -27 29 -45 49 -18 19 -38 39 -45 44 -7 4 -19 19 -27
32 -13 23 -11 27 16 51 33 29 53 76 53 122 l0 29 58 -4 c31 -2 67 -9 80 -16z
m227 -91 c3 -5 -1 -10 -9 -10 -9 0 -16 5 -16 10 0 6 4 10 9 10 6 0 13 -4 16
-10z m-1557 -136 c21 -6 31 -38 14 -46 -4 -1 -18 -20 -31 -40 -16 -27 -19 -38
-9 -38 11 0 11 -2 -1 -9 -8 -5 -11 -17 -7 -28 7 -23 -40 -62 -90 -73 -29 -7
-34 -5 -34 11 0 26 -41 25 -60 -1 -17 -23 -81 -28 -98 -7 -6 6 -12 34 -13 62
-3 41 0 50 14 53 10 2 22 15 27 28 7 16 17 24 34 24 13 0 38 8 55 18 24 13 34
15 49 6 22 -14 72 -7 72 10 0 6 5 4 10 -4 9 -13 10 -13 10 1 0 15 18 39 30 39
3 0 15 -3 28 -6z m2258 -941 c7 -10 14 -28 14 -40 0 -25 10 -29 28 -11 9 9 12
9 12 -1 0 -10 13 -12 50 -9 57 6 66 -1 73 -53 6 -49 14 -59 43 -59 24 0 31
-15 16 -36 -4 -6 -25 -14 -47 -17 -22 -3 -32 -3 -22 -1 22 7 22 41 -1 53 -10
5 -41 11 -68 12 -40 2 -55 9 -82 35 -19 18 -31 38 -27 43 4 7 0 8 -11 4 -14
-5 -16 -3 -9 13 5 10 9 34 9 52 1 37 4 39 22 15z m890 -65 c-1 -7 -5 -19 -9
-25 -5 -7 -4 -13 2 -13 13 0 7 -33 -8 -38 -9 -3 -11 6 -7 33 6 36 13 55 21 55
2 0 2 -6 1 -12z m-927 -59 c-14 -27 -27 -24 -22 5 3 16 10 23 19 19 10 -4 11
-10 3 -24z m89 -117 c4 -12 -45 -28 -55 -18 -8 8 28 36 41 33 6 -2 11 -8 14
-15z m-377 -645 c-12 -12 -41 3 -41 22 0 29 13 33 32 9 9 -13 13 -27 9 -31z
m19 33 c0 -5 -4 -10 -10 -10 -5 0 -10 5 -10 10 0 6 5 10 10 10 6 0 10 -4 10
-10z m-120 -604 c0 -17 -14 -29 -23 -20 -8 8 3 34 14 34 5 0 9 -6 9 -14z"/>
<path d="M3866 4592 c-9 -14 31 -45 49 -38 25 9 13 41 -17 44 -14 2 -29 -1
-32 -6z"/>
<path d="M4010 4040 c0 -5 5 -10 10 -10 6 0 10 5 10 10 0 6 -4 10 -10 10 -5 0
-10 -4 -10 -10z"/>
<path d="M3710 3964 c0 -9 5 -14 12 -12 18 6 21 28 4 28 -9 0 -16 -7 -16 -16z"/>
<path d="M3750 3970 c0 -5 5 -10 11 -10 5 0 7 5 4 10 -3 6 -8 10 -11 10 -2 0
-4 -4 -4 -10z"/>
<path d="M4755 2170 c-7 -12 22 -12 50 0 17 7 15 9 -12 9 -17 1 -35 -3 -38 -9z"/>
<path d="M4523 2094 c11 -12 75 -15 82 -5 4 7 -10 11 -41 11 -26 0 -45 -3 -41
-6z"/>
<path d="M4350 1824 c0 -8 5 -12 10 -9 6 4 8 11 5 16 -9 14 -15 11 -15 -7z"/>
<path d="M5430 5510 c0 -8 5 -22 10 -30 9 -13 10 -13 10 0 0 8 -5 22 -10 30
-9 13 -10 13 -10 0z"/>
<path d="M2106 1783 c8 -28 30 -63 51 -85 34 -34 35 -38 15 -38 -15 0 -20 -5
-16 -15 4 -8 1 -15 -6 -15 -7 0 -9 -8 -5 -20 6 -19 2 -20 -63 -20 -88 0 -129
-19 -137 -64 -5 -25 -1 -41 20 -72 14 -21 31 -41 37 -45 14 -9 0 -69 -18 -69
-7 0 -17 -14 -22 -32 -7 -27 -13 -32 -37 -33 -22 0 -30 -6 -38 -28 -8 -24 -5
-33 14 -53 28 -29 19 -41 -36 -47 -22 -2 197 -4 488 -5 315 -1 527 2 527 7 0
39 -105 131 -182 160 -14 5 -29 19 -33 30 -3 11 -29 36 -58 55 -29 20 -71 49
-95 66 -23 16 -60 39 -82 50 -21 11 -46 30 -54 42 -9 13 -31 40 -49 61 -91
106 -132 148 -170 173 -23 16 -43 32 -45 37 -2 4 -7 7 -12 7 -4 0 -2 -21 6
-47z"/>
<path d="M3770 1380 c0 -5 10 -10 23 -10 18 0 19 2 7 10 -19 13 -30 13 -30 0z"/>
</g>
</svg>
